<!--?xml version="1.0" encoding="utf-8"?-->
<!-- Generator: Adobe Illustrator 18.1.1, SVG Export Plug-In . SVG Version: 6.00 Build 0)  -->

<svg version="1.1" id="_x32_" xmlns="http://www.w3.org/2000/svg" xmlns:xlink="http://www.w3.org/1999/xlink" x="0px" y="0px" viewBox="0 0 512 512" style="width: 256px; height: 256px; opacity: 1;" xml:space="preserve">
<style type="text/css">
	.st0{fill:#4B4B4B;}
</style>
<g>
	<path class="st0" d="M262.015,92.108c-11.293-11.294-29.62-11.294-40.912,0c-8.181,8.171-2.625,2.625-7.529,7.52
		c-16.84,16.848-37.174,7.441-41.338-17.092c-2.556-15.058-10.119-41.59-25.968-57.439c-33.461-33.462-87.71-33.462-121.172,0
		c-33.462,33.453-33.462,87.71,0,121.172c15.849,15.849,42.382,23.412,57.439,25.968c24.533,4.164,33.94,24.499,17.092,41.338
		c-4.894,4.904,0.652-0.652-7.52,7.529c-11.294,11.292-11.294,29.619,0,40.912c11.292,11.293,29.618,11.293,40.912,0L262.015,133.02
		C273.308,121.726,273.308,103.4,262.015,92.108z"></path>
	<path class="st0" d="M359.749,415.466c-10.928-3.895-20.674-7.138-29.611-11.467c-8.937-4.347-17.178-9.676-25.758-18.23
		c-19.379-19.378-52.162-52.162-80.104-80.103c-13.962-13.962-26.724-26.724-35.991-35.992c-9.267-9.267-15.031-15.031-15.04-15.04
		l-18.882,18.883c0.009,0.017,5.773,5.772,15.04,15.048c27.802,27.794,87.031,87.032,116.094,116.086
		c10.789,10.824,22.004,18.074,33.018,23.386c16.605,7.963,32.262,11.902,47.919,18.622c15.692,6.729,31.897,15.935,50.849,34.826
		C438.357,502.559,447.798,512,447.798,512l18.883-18.882c0,0-9.441-9.45-30.506-30.514
		C407.834,434.097,381.561,423.196,359.749,415.466z"></path>
	<path class="st0" d="M481.486,417.284c-25.133-25.308-33.279-45.564-40.868-66.541c-3.765-10.476-7.259-21.195-12.58-32.227
		c-5.312-11.014-12.562-22.23-23.386-33.018c-19.37-19.378-52.162-52.162-80.094-80.104c-13.972-13.961-26.733-26.724-35.992-35.991
		c-9.276-9.267-15.032-15.032-15.048-15.04l-18.883,18.882c0.017,0.009,5.772,5.772,15.04,15.04
		c27.803,27.802,87.041,87.032,116.096,116.095c8.554,8.58,13.883,16.822,18.23,25.758c6.52,13.354,10.484,28.777,18.091,46.764
		c7.607,17.952,19.17,37.99,40.512,59.273c21.064,21.065,30.515,30.506,30.515,30.506L512,447.798
		C512,447.798,502.559,438.357,481.486,417.284z"></path>
</g>
</svg>
