<?xml version="1.0" encoding="UTF-8" standalone="no"?>
<!-- Created with Inkscape (http://www.inkscape.org/) -->

<svg
   width="128mm"
   height="128mm"
   viewBox="0 0 128 128"
   version="1.1"
   id="svg11651"
   inkscape:version="1.3.2 (091e20e, 2023-11-25, custom)"
   sodipodi:docname="add-spaces.svg"
   xmlns:inkscape="http://www.inkscape.org/namespaces/inkscape"
   xmlns:sodipodi="http://sodipodi.sourceforge.net/DTD/sodipodi-0.dtd"
   xmlns="http://www.w3.org/2000/svg"
   xmlns:svg="http://www.w3.org/2000/svg">
  <sodipodi:namedview
     id="namedview11653"
     pagecolor="#ffffff"
     bordercolor="#666666"
     borderopacity="1.0"
     inkscape:pageshadow="2"
     inkscape:pageopacity="0.0"
     inkscape:pagecheckerboard="true"
     inkscape:document-units="mm"
     showgrid="false"
     inkscape:zoom="1.6522889"
     inkscape:cx="273.55992"
     inkscape:cy="265.38943"
     inkscape:window-width="2880"
     inkscape:window-height="1514"
     inkscape:window-x="5749"
     inkscape:window-y="-11"
     inkscape:window-maximized="1"
     inkscape:current-layer="text1"
     inkscape:showpageshadow="2"
     inkscape:deskcolor="#d1d1d1" />
  <defs
     id="defs11648" />
  <g
     inkscape:label="レイヤー 1"
     inkscape:groupmode="layer"
     id="layer1">
    <g
       aria-label="A"
       id="text12169-0"
       style="font-size:52.9167px;line-height:1.25;fill:#4b4b4b;stroke-width:0.264583"
       transform="translate(26.363268)">
      <g
         aria-label="or"
         id="text1649"
         style="font-size:21.1667px;font-family:'Hiragino Kaku Gothic Pro';-inkscape-font-specification:'Hiragino Kaku Gothic Pro';stroke-width:0.0700042">
        <g
           id="text1">
          <path
             style="-inkscape-font-specification:'Noto Sans JP';fill:#4d4d4d;stroke-width:0.0185219"
             d="m -14.79074,83.908852 12.5983995,-37.2364 h 5.2323999 l 12.6491996,37.2364 h -4.9784 l -6.5023996,-20.828 q -1.016,-3.2004 -1.9304,-6.2484 -0.9144,-3.0988 -1.82879999,-6.35 H 0.24605942 q -0.86359999,3.2512 -1.82880002,6.35 -0.9143999,3.048 -1.8795999,6.2484 l -6.6039995,20.828 z m 6.5531995,-11.3792 v -3.7084 H 8.9328593 v 3.7084 z"
             id="text2"
             aria-label="A " />
          <path
             style="-inkscape-font-specification:'Noto Sans JP';fill:#4d4d4d;stroke-width:0.0185219"
             d="m 68.281547,42.671689 q -0.2032,0.4572 -0.3556,1.1176 -0.1016,0.6096 -0.254,1.1684 -0.4064,2.0828 -0.8128,5.2832 -0.4064,3.2004 -0.6604,6.858 -0.254,3.6068 -0.254,7.112 0,3.2512 0.4064,6.35 0.4572,3.0988 1.1176,5.9436 0.7112,2.794 1.4732,5.1816 l -3.6576,1.1176 q -0.762,-2.286 -1.4224,-5.2832 -0.6604,-3.048 -1.0668,-6.35 -0.4064,-3.3528 -0.4064,-6.5532 0,-2.6416 0.1524,-5.3848 0.2032,-2.7432 0.4572,-5.334 0.254,-2.6416 0.4572,-4.9276 0.254,-2.286 0.4572,-3.9624 0.0508,-0.6604 0.1016,-1.3208 0.0508,-0.6604 0,-1.1176 z m -8.2296,6.2992 q 4.4704,0 8.8392,-0.254 4.3688,-0.254 8.382,-0.762 4.064,-0.508 7.62,-1.3208 l 0.0508,3.7592 q -2.7432,0.4572 -5.9436,0.8636 -3.1496,0.3556 -6.4516,0.6604 -3.302,0.254 -6.5024,0.4064 -3.2004,0.1524 -6.0452,0.1524 -1.0668,0 -2.5908,-0.0508 -1.524,-0.1016 -3.048,-0.1524 -1.524,-0.1016 -2.5908,-0.1524 l -0.1016,-3.81 q 0.9144,0.1524 2.4892,0.3048 1.5748,0.1524 3.2004,0.254 1.6256,0.1016 2.6924,0.1016 z m 21.1836,5.9436 q -0.1524,0.3048 -0.3556,0.8636 -0.1524,0.508 -0.3556,1.0668 -0.1524,0.508 -0.3048,0.9652 -1.524,4.6736 -3.6576,8.5852 -2.1336,3.8608 -4.6228,6.9088 -2.4892,2.9972 -5.1308,5.0292 -2.4892,1.8796 -5.3848,3.1496 -2.8956,1.27 -5.588,1.27 -1.6256,0 -2.9972,-0.7112 -1.3716,-0.7112 -2.1844,-2.1336 -0.8128,-1.4224 -0.8128,-3.556 0,-2.5908 1.1176,-5.1308 1.1176,-2.5908 3.048,-4.8768 1.9812,-2.286 4.4704,-4.064 2.54,-1.8288 5.3848,-2.9464 2.4892,-0.9144 5.3848,-1.4732 2.9464,-0.5588 5.3848,-0.5588 4.826,0 8.3312,1.6764 3.5052,1.6764 5.3848,4.572 1.9304,2.8448 1.9304,6.4008 0,2.7432 -0.9652,5.2324 -0.9144,2.4892 -2.9464,4.572 -1.9812,2.032 -5.1308,3.5052 -3.1496,1.4732 -7.5692,2.1844 l -2.1844,-3.4036 q 4.6228,-0.4572 7.9248,-2.1336 3.302,-1.6764 5.1308,-4.2672 1.8288,-2.5908 1.8288,-5.8928 0,-2.4892 -1.3716,-4.572 -1.3716,-2.0828 -4.0132,-3.3528 -2.5908,-1.3208 -6.4008,-1.3208 -3.2004,0 -5.9436,0.762 -2.6924,0.762 -4.6228,1.6256 -2.8448,1.27 -5.2324,3.4036 -2.3368,2.1336 -3.7084,4.6228 -1.3716,2.4384 -1.3716,4.7752 0,1.5748 0.7112,2.3876 0.762,0.762 2.1844,0.762 1.8796,0 4.2164,-1.0668 2.3876,-1.0668 4.8768,-3.2512 3.4036,-2.9464 6.2992,-7.2136 2.9464,-4.2672 4.6736,-10.4648 0.1016,-0.4064 0.2032,-0.9144 0.1016,-0.508 0.2032,-1.0668 0.1524,-0.5588 0.1524,-0.9652 z"
             id="text2-5"
             aria-label="あ " />
        </g>
        <g
           id="rect1"
           transform="translate(-7.3660445,1.2810512)">
          <path
             style="color:#000000;-inkscape-font-specification:'Hiragino Kaku Gothic Pro';fill:#4d4d4d;-inkscape-stroke:none"
             d="m 26.734398,73.171646 h 3.401203 v 8.843126 h -3.401203 z"
             id="path5" />
          <path
             style="color:#000000;-inkscape-font-specification:'Hiragino Kaku Gothic Pro';fill:#ffffff;fill-opacity:0.0173565;-inkscape-stroke:none"
             d="m 25.355469,71.792969 v 1.378906 10.222656 h 6.158203 V 71.792969 Z m 2.757812,2.757812 h 0.642578 v 6.085938 h -0.642578 z"
             id="path6" />
        </g>
        <g
           id="rect1-7"
           transform="translate(-7.3660445,1.2810512)">
          <path
             style="color:#000000;-inkscape-font-specification:'Hiragino Kaku Gothic Pro';fill:#4d4d4d;-inkscape-stroke:none"
             d="m 49.285973,73.013779 h 3.401202 v 8.843126 h -3.401202 z"
             id="path7" />
          <path
             style="color:#000000;-inkscape-font-specification:'Hiragino Kaku Gothic Pro';fill:#ffffff;fill-opacity:0.0173565;-inkscape-stroke:none"
             d="m 47.90625,71.634766 v 1.378906 10.222656 h 6.160156 V 71.634766 Z m 2.757812,2.757812 h 0.644532 v 6.085938 h -0.644532 z"
             id="path8" />
        </g>
        <g
           id="rect2"
           transform="translate(-7.3660445,1.2810512)">
          <path
             style="color:#000000;-inkscape-font-specification:'Hiragino Kaku Gothic Pro';fill:#4d4d4d;-inkscape-stroke:none"
             d="m 26.827423,78.237595 h 25.849138 v 3.741322 H 26.827423 Z"
             id="path9" />
          <path
             style="color:#000000;-inkscape-font-specification:'Hiragino Kaku Gothic Pro';fill:#ffffff;fill-opacity:0.0173565;-inkscape-stroke:none"
             d="m 25.449219,76.859375 v 1.378906 5.119141 h 28.605468 v -6.498047 z m 2.757812,2.757812 h 23.089844 v 0.982422 H 28.207031 Z"
             id="path10" />
        </g>
      </g>
    </g>
  </g>
</svg>
