<?xml version="1.0" encoding="UTF-8" standalone="no"?>
<!--?xml version="1.0" encoding="utf-8"?-->

<!-- Generator: Adobe Illustrator 18.0.0, SVG Export Plug-In . SVG Version: 6.00 Build 0)  -->

<svg
   version="1.1"
   id="_x32_"
   x="0px"
   y="0px"
   viewBox="0 0 512 512"
   style="width: 256px; height: 256px; opacity: 1;"
   xml:space="preserve"
   sodipodi:docname="char-counter.svg"
   inkscape:version="1.2 (dc2aeda, 2022-05-15)"
   xmlns:inkscape="http://www.inkscape.org/namespaces/inkscape"
   xmlns:sodipodi="http://sodipodi.sourceforge.net/DTD/sodipodi-0.dtd"
   xmlns="http://www.w3.org/2000/svg"
   xmlns:svg="http://www.w3.org/2000/svg"><defs
   id="defs27" /><sodipodi:namedview
   id="namedview25"
   pagecolor="#ffffff"
   bordercolor="#000000"
   borderopacity="0.25"
   inkscape:showpageshadow="2"
   inkscape:pageopacity="0.0"
   inkscape:pagecheckerboard="0"
   inkscape:deskcolor="#d1d1d1"
   showgrid="false"
   inkscape:zoom="0.90832373"
   inkscape:cx="242.2044"
   inkscape:cy="265.87437"
   inkscape:window-width="1680"
   inkscape:window-height="941"
   inkscape:window-x="0"
   inkscape:window-y="25"
   inkscape:window-maximized="1"
   inkscape:current-layer="text364" />
<style
   type="text/css"
   id="style2">
	.st0{fill:#4B4B4B;}
</style>
<g
   id="g22">
	<path
   class="st0"
   d="M396.178,83.963c-1.175,2.463-2.397,4.919-3.521,7.39h0.074c-0.023,0.054-0.051,0.105-0.074,0.16h55.145   l-0.074-0.211c-5.639-16.111-12.281-32.363-19.843-48.458c-1.374-2.986-2.725-5.977-4.158-8.959   c-0.018,0.031-0.035,0.062-0.055,0.09c-0.027-0.058-0.053-0.113-0.082-0.172C413.257,50.25,404.079,67.044,396.178,83.963z"
   style="fill: rgb(75, 75, 75);"
   id="path4" />
	<path
   class="st0"
   d="M408.65,420.647h-15.994c0.01,0.024,0.021,0.043,0.031,0.066h-0.176c8.752,19.246,19.206,38.589,31.078,57.484   l0.156,0.246l0.125-0.262c8.112-16.88,15.281-34.022,21.381-51.19c0.771-2.116,1.581-4.228,2.323-6.344h-0.057   c0.018-0.054,0.039-0.105,0.057-0.16L408.65,420.647z"
   style="fill: rgb(75, 75, 75);"
   id="path6" />
	<path
   class="st0"
   d="M406.972,510.423c-19.664-29.021-36.153-59.244-49.157-89.936l-192.309,0.16H90.609   c0.01,0.02,0.02,0.043,0.029,0.063h-0.179c12.953,30.781,29.735,61.473,50.023,91.29h267.52l-0.187-0.258   C407.589,511.442,407.39,511.11,406.972,510.423z"
   style="fill: rgb(75, 75, 75);"
   id="path8" />
	<path
   class="st0"
   d="M357.92,91.513l0.043-0.098c12.855-30.594,29.345-60.818,49.235-90.206c0.121-0.203,0.211-0.5,0.31-0.769   c0.062-0.094,0.111-0.191,0.18-0.281h-0.066c0.016-0.066,0.053-0.086,0.064-0.16L140.35,0.07   c-17.538,25.886-32.339,52.502-44.37,79.396c-1.792,3.962-3.697,7.913-5.37,11.887h0.068c-0.022,0.054-0.049,0.105-0.07,0.16   H357.92z"
   style="fill: rgb(75, 75, 75);"
   id="path10" />
	<polygon
   class="st0"
   points="184.033,305.766 183.873,288.183 138.995,288.343 138.835,206.18 119.289,206.34 119.449,305.766  "
   style="fill: rgb(75, 75, 75);"
   id="polygon12" />
	<polygon
   class="st0"
   points="221.955,305.766 221.797,207.089 221.797,206.34 221.795,206.34 221.795,206.18 202.248,206.34    202.408,305.766  "
   style="fill: rgb(75, 75, 75);"
   id="polygon14" />
	<polygon
   class="st0"
   points="264.444,305.766 264.286,265.998 264.286,265.506 303.642,265.346 303.482,247.872 264.444,248.032    264.286,224.11 264.286,223.817 310.493,223.657 310.333,206.18 244.792,206.34 244.952,305.766  "
   style="fill: rgb(75, 75, 75);"
   id="polygon16" />
	<polygon
   class="st0"
   points="327.17,305.606 327.17,305.606 327.17,305.766 392.711,305.766 392.551,288.183 346.717,288.343    346.557,264.389 385.911,264.233 385.751,246.76 346.717,246.916 346.557,223.817 392.711,223.657 392.551,206.18 327.01,206.34    327.17,305.461  "
   style="fill: rgb(75, 75, 75);"
   id="polygon18" />
	<path
   class="st0"
   d="M459.697,130.602c-10.439-11.544-25.312-18.164-40.803-18.164H93.16c-3.693,0-7.511,0.394-11.344,1.171   c-25.344,5.36-43.734,28.01-43.734,53.853v177.077c0,25.843,18.391,48.493,43.734,53.853c3.834,0.777,7.652,1.171,11.344,1.171   h325.734c15.49,0,30.364-6.621,40.803-18.164c9.17-10.111,14.222-23.204,14.222-36.86V167.462   C473.918,153.806,468.867,140.713,459.697,130.602z M70.268,344.538V167.462c0-4.427,1.277-8.713,3.689-12.394   c4.236-6.539,11.411-10.443,19.203-10.443h325.734c7.757,0,14.913,3.904,19.148,10.443c2.412,3.681,3.689,7.968,3.689,12.394   v177.077c0,4.427-1.277,8.713-3.689,12.394c-4.236,6.539-11.391,10.443-19.148,10.443H93.16c-7.792,0-14.967-3.904-19.203-10.443   C71.545,353.252,70.268,348.965,70.268,344.538z"
   style="fill: rgb(75, 75, 75);"
   id="path20" />
</g>
<rect
   style="fill:#ffffff"
   id="rect308"
   width="306.87155"
   height="138.75931"
   x="108.339"
   y="185.19031" /><g
   aria-label="0123"
   id="text364"
   style="font-size:133.333px;font-family:'SF Pro';-inkscape-font-specification:'SF Pro';fill:#333333"><path
     d="m 146.56872,298.29394 q 10.80726,0 18.55464,-5.92446 7.74738,-5.92447 11.84893,-16.79683 4.16665,-10.87237 4.16665,-25.78119 v -0.13021 q 0,-14.90881 -4.16665,-25.78118 -4.10155,-10.87237 -11.84893,-16.73173 -7.74738,-5.92446 -18.55464,-5.92446 -10.80726,0 -18.55464,5.92446 -7.68227,5.85936 -11.78383,16.73173 -4.10155,10.87237 -4.10155,25.78118 v 0.13021 q 0,14.90882 4.10155,25.78119 4.10156,10.87236 11.78383,16.79683 7.74738,5.92446 18.55464,5.92446 z m 0,-10.22133 q -7.16144,0 -12.23955,-4.62238 -5.07812,-4.68749 -7.74738,-13.28122 -2.66926,-8.59372 -2.66926,-20.37755 v -0.13021 q 0,-11.78382 2.66926,-20.31244 2.66926,-8.59373 7.74738,-13.21612 5.07811,-4.62238 12.23955,-4.62238 7.16144,0 12.23955,4.62238 5.14322,4.62239 7.81248,13.21612 2.73437,8.52862 2.73437,20.31244 v 0.13021 q 0,11.78383 -2.73437,20.37755 -2.66926,8.59373 -7.81248,13.28122 -5.07811,4.62238 -12.23955,4.62238 z"
     id="path734" /><path
     d="m 217.33677,296.73145 h 11.3281 v -93.94508 h -11.45831 l -24.99993,17.96871 v 11.78382 l 24.86972,-17.31766 h 0.26042 z"
     id="path736" /><path
     d="m 252.49293,296.73145 h 61.97901 v -10.41664 h -49.34883 l 3.45051,3.2552 v -7.22655 l -3.45051,7.22655 25.78118,-26.43223 q 8.65883,-8.85414 13.41143,-14.84371 4.75259,-6.05467 6.6406,-10.87237 1.95312,-4.81769 1.95312,-9.96091 v -0.13021 q 0,-7.35675 -3.84113,-13.28122 -3.77603,-5.92446 -10.41664,-9.37497 -6.64061,-3.45051 -15.16923,-3.45051 -8.72394,0 -15.95048,3.71092 -7.16144,3.64583 -11.39321,10.09112 -4.23176,6.3802 -4.23176,14.5182 v 0.39062 h 11.3281 v -0.32552 q 0,-5.07811 2.66927,-9.17966 2.66926,-4.10156 7.29164,-6.5104 4.62239,-2.47396 10.48175,-2.47396 5.14321,0 9.04945,2.14844 3.97135,2.08332 6.18488,5.79425 2.27864,3.71093 2.27864,8.52863 v 0.13021 q 0,3.90624 -1.30208,7.35675 -1.23697,3.45051 -4.62238,7.81248 -3.3203,4.29686 -9.7005,10.93747 l -33.07283,34.50512 z"
     id="path738" /><path
     d="m 359.58901,298.29394 q 9.44008,0 16.79683,-3.51561 7.35676,-3.58072 11.58852,-9.7656 4.23176,-6.18488 4.23176,-13.99736 v -0.13021 q 0,-10.02602 -6.3802,-16.08069 -6.31508,-6.11978 -16.60152,-6.96613 v -0.26041 q 5.85936,-1.23698 10.35154,-4.23176 4.49218,-2.99479 7.03123,-7.48696 2.53906,-4.49218 2.53906,-10.28644 v -0.1302 q 0,-7.16145 -3.71093,-12.56508 -3.64582,-5.46873 -10.35154,-8.52862 -6.6406,-3.12499 -15.62496,-3.12499 -8.78904,0 -15.55985,3.19009 -6.70572,3.1901 -10.80727,8.91925 -4.03645,5.72915 -4.81769,13.41143 l -0.0651,0.65104 h 11.26299 l 0.0651,-0.65104 q 0.52083,-4.7526 3.12499,-8.20311 2.60416,-3.45051 6.90102,-5.27342 4.36197,-1.88802 9.89581,-1.88802 5.72916,0 9.7005,1.82291 4.03645,1.82291 6.11978,5.27343 2.08332,3.45051 2.08332,8.39841 v 0.13021 q 0,4.68749 -2.40884,8.39842 -2.40885,3.64582 -6.70572,5.79425 -4.29686,2.08333 -9.89581,2.08333 h -11.26299 v 9.89581 h 11.78383 q 9.89581,0 15.62496,4.68749 5.79425,4.62238 5.79425,13.28121 v 0.13021 q 0,4.94791 -2.60416,8.78904 -2.60416,3.77603 -7.29164,5.92447 -4.62239,2.14843 -10.80727,2.14843 -6.24998,0 -11.00258,-1.95312 -4.75259,-2.01823 -7.61716,-5.53384 -2.79948,-3.51562 -3.32031,-8.138 l -0.0651,-0.65104 h -11.26299 l 0.0651,0.78125 q 0.65104,7.42185 4.8177,13.21611 4.23176,5.79425 11.4583,9.11456 7.22654,3.3203 16.92704,3.3203 z"
     id="path740" /></g><rect
   style="fill:#4d4d4d"
   id="rect624"
   width="23.190044"
   height="72.146805"
   x="473.24869"
   y="222.02321" /><ellipse
   style="fill:#4d4d4d;stroke-width:0.983427"
   id="path730"
   cx="496.11093"
   cy="258.09836"
   rx="11.812262"
   ry="35.834694" /><ellipse
   style="fill:#4d4d4d"
   id="path732"
   cx="498.96616"
   cy="266.60248"
   rx="0.13533121"
   ry="1.8946369" /></svg>
