<?xml version="1.0" encoding="UTF-8" standalone="no"?>
<!-- Created with Inkscape (http://www.inkscape.org/) -->

<svg
   width="128mm"
   height="128mm"
   viewBox="0 0 128 128"
   version="1.1"
   id="svg11651"
   inkscape:version="1.3 (0e150ed, 2023-07-21)"
   sodipodi:docname="space-checker.svg"
   xmlns:inkscape="http://www.inkscape.org/namespaces/inkscape"
   xmlns:sodipodi="http://sodipodi.sourceforge.net/DTD/sodipodi-0.dtd"
   xmlns="http://www.w3.org/2000/svg"
   xmlns:svg="http://www.w3.org/2000/svg">
  <sodipodi:namedview
     id="namedview11653"
     pagecolor="#ffffff"
     bordercolor="#666666"
     borderopacity="1.0"
     inkscape:pageshadow="2"
     inkscape:pageopacity="0.0"
     inkscape:pagecheckerboard="true"
     inkscape:document-units="mm"
     showgrid="false"
     inkscape:zoom="0.82614443"
     inkscape:cx="249.95629"
     inkscape:cy="196.09162"
     inkscape:window-width="1680"
     inkscape:window-height="941"
     inkscape:window-x="0"
     inkscape:window-y="25"
     inkscape:window-maximized="1"
     inkscape:current-layer="text1"
     inkscape:showpageshadow="2"
     inkscape:deskcolor="#d1d1d1" />
  <defs
     id="defs11648" />
  <g
     inkscape:label="レイヤー 1"
     inkscape:groupmode="layer"
     id="layer1">
    <g
       aria-label="A"
       id="text12169-0"
       style="font-size:52.9167px;line-height:1.25;fill:#4b4b4b;stroke-width:0.264583"
       transform="translate(26.363268)">
      <g
         aria-label="or"
         id="text1649"
         style="font-size:21.1667px;font-family:'Hiragino Kaku Gothic Pro';-inkscape-font-specification:'Hiragino Kaku Gothic Pro';stroke-width:0.0700042">
        <g
           id="text1">
          <path
             style="color:#000000;-inkscape-font-specification:'SF Pro Text';fill:#4d4d4d;-inkscape-stroke:none"
             d="m -8.0469344,81.209312 h 4.6880859 L 0.23783113,70.964977 H 14.475722 l 3.596679,10.244335 h 4.688086 L 9.5643935,45.416149 H 5.1491592 Z M 7.1583388,51.195641 h 0.396875 L 13.161073,67.16986 H 1.5524796 Z M 58.702468,81.209312 h 13.965039 c 7.615039,0 12.129492,-3.745507 12.129492,-10.021093 v -0.04961 c 0,-4.71289 -3.100586,-8.061523 -7.987109,-8.68164 v -0.396875 c 3.447851,-0.620117 6.176367,-3.993555 6.176367,-7.689453 v -0.04961 c 0,-5.457032 -4.018359,-8.904883 -10.591601,-8.904883 H 58.702468 Z M 71.452077,49.360094 c 4.440039,0 7.019727,2.108399 7.019727,5.729883 v 0.04961 c 0,3.770313 -2.75332,5.705078 -8.160742,5.705078 h -7.14375 v -11.48457 z m 0.124024,15.329297 c 5.705078,0 8.632031,2.108398 8.632031,6.225976 v 0.04961 c 0,4.117578 -2.827734,6.30039 -8.210351,6.30039 H 63.167312 V 64.689391 Z"
             id="path3" />
          <path
             style="color:#000000;-inkscape-font-specification:'SF Pro Text';fill:#ffffff;fill-opacity:0.0173565;-inkscape-stroke:none"
             d="m 4.1875,44.037109 -14.212891,38.550782 h 1.978516 5.6660156 L 1.2148437,72.34375 H 13.498047 l 3.597656,10.244141 h 7.642578 L 10.525391,44.037109 Z m 53.136719,0 v 38.550782 h 1.378906 13.964844 c 4.033605,0 7.400554,-0.988988 9.798828,-2.972657 2.398274,-1.983669 3.708984,-4.959275 3.708984,-8.427734 v -0.04883 c 0,-4.158338 -2.341852,-7.474963 -5.941406,-9.080078 2.471969,-1.66508 4.130859,-4.53573 4.130859,-7.6875 v -0.05078 c 0,-3.066994 -1.185431,-5.745737 -3.320312,-7.550781 -2.134881,-1.805044 -5.122665,-2.732422 -8.650391,-2.732422 z M 6.1113281,46.794922 H 8.6035156 L 20.783203,79.830078 H 19.048828 L 15.453125,69.585937 H -0.74023437 L -4.3359375,79.830078 h -1.734375 z m 53.9707029,0 h 12.3125 c 3.04551,0 5.353489,0.796941 6.871094,2.080078 1.517605,1.283137 2.341797,3.055281 2.341797,5.445312 v 0.05078 c 0,2.720602 -1.918868,5.193158 -4.28125,6.029297 1.619312,-1.208415 2.52539,-3.105767 2.52539,-5.261719 v -0.04883 c 0,-2.138174 -0.829096,-4.047866 -2.351562,-5.291016 -1.522466,-1.24315 -3.610534,-1.818359 -6.048828,-1.818359 h -9.66211 v 14.24414 h 8.521485 c 2.022552,0 3.66493,-0.361922 5.121094,-0.925781 v 2.373047 l 1.205078,0.152344 c 4.343711,0.551232 6.78125,3.206392 6.78125,7.314453 v 0.04883 c 0,2.807121 -0.946277,4.844757 -2.708985,6.302734 -1.762708,1.457978 -4.459589,2.339844 -8.041015,2.339844 H 60.082031 Z M 6.1816406,49.816406 5.8574219,50.738281 -0.39257813,68.548828 H 15.107422 L 8.5332031,49.816406 Z m 58.3652344,0.921875 h 6.904297 c 2.00174,0 3.425348,0.480847 4.302734,1.197266 0.877386,0.716418 1.339844,1.67099 1.339844,3.154297 v 0.04883 c 0,1.549477 -0.450509,2.426684 -1.464844,3.136719 -1.014335,0.710034 -2.779118,1.189453 -5.318359,1.189453 H 64.546875 Z M 7.3574219,54.792969 11.214844,65.791016 H 3.4980469 Z m 54.4316401,8.517578 v 15.333984 h 10.208985 c 2.877714,0 5.240444,-0.56881 6.96289,-1.892578 1.722447,-1.323768 2.626954,-3.412648 2.626954,-5.787109 v -0.04883 c 0,-2.385538 -0.955751,-4.481683 -2.75,-5.775391 -1.79425,-1.293708 -4.239306,-1.830078 -7.261719,-1.830078 z m 2.757813,2.757812 h 7.029297 c 2.682659,0 4.552944,0.51871 5.648437,1.308594 1.095494,0.789884 1.605469,1.807026 1.605469,3.539063 v 0.04883 c 0,1.743112 -0.511756,2.804532 -1.548828,3.601562 -1.037072,0.797031 -2.778306,1.320313 -5.283203,1.320313 h -7.451172 z"
             id="path4" />
        </g>
        <g
           id="rect1">
          <path
             style="color:#000000;-inkscape-font-specification:'Hiragino Kaku Gothic Pro';fill:#4d4d4d;-inkscape-stroke:none"
             d="m 26.734398,73.171646 h 3.401203 v 8.843126 h -3.401203 z"
             id="path5" />
          <path
             style="color:#000000;-inkscape-font-specification:'Hiragino Kaku Gothic Pro';fill:#ffffff;fill-opacity:0.0173565;-inkscape-stroke:none"
             d="m 25.355469,71.792969 v 1.378906 10.222656 h 6.158203 V 71.792969 Z m 2.757812,2.757812 h 0.642578 v 6.085938 h -0.642578 z"
             id="path6" />
        </g>
        <g
           id="rect1-7">
          <path
             style="color:#000000;-inkscape-font-specification:'Hiragino Kaku Gothic Pro';fill:#4d4d4d;-inkscape-stroke:none"
             d="m 49.285973,73.013779 h 3.401202 v 8.843126 h -3.401202 z"
             id="path7" />
          <path
             style="color:#000000;-inkscape-font-specification:'Hiragino Kaku Gothic Pro';fill:#ffffff;fill-opacity:0.0173565;-inkscape-stroke:none"
             d="m 47.90625,71.634766 v 1.378906 10.222656 h 6.160156 V 71.634766 Z m 2.757812,2.757812 h 0.644532 v 6.085938 h -0.644532 z"
             id="path8" />
        </g>
        <g
           id="rect2">
          <path
             style="color:#000000;-inkscape-font-specification:'Hiragino Kaku Gothic Pro';fill:#4d4d4d;-inkscape-stroke:none"
             d="m 26.827423,78.237595 h 25.849138 v 3.741322 H 26.827423 Z"
             id="path9" />
          <path
             style="color:#000000;-inkscape-font-specification:'Hiragino Kaku Gothic Pro';fill:#ffffff;fill-opacity:0.0173565;-inkscape-stroke:none"
             d="m 25.449219,76.859375 v 1.378906 5.119141 h 28.605468 v -6.498047 z m 2.757812,2.757812 h 23.089844 v 0.982422 H 28.207031 Z"
             id="path10" />
        </g>
      </g>
    </g>
  </g>
</svg>
