<?xml version="1.0" encoding="UTF-8" standalone="no"?>
<!-- Created with Inkscape (http://www.inkscape.org/) -->

<svg
   width="128mm"
   height="128mm"
   viewBox="0 0 128 128"
   version="1.1"
   id="svg11651"
   inkscape:version="1.1.1 (3bf5ae0d25, 2021-09-20)"
   sodipodi:docname="cardinal.svg"
   xmlns:inkscape="http://www.inkscape.org/namespaces/inkscape"
   xmlns:sodipodi="http://sodipodi.sourceforge.net/DTD/sodipodi-0.dtd"
   xmlns:xlink="http://www.w3.org/1999/xlink"
   xmlns="http://www.w3.org/2000/svg"
   xmlns:svg="http://www.w3.org/2000/svg">
  <sodipodi:namedview
     id="namedview11653"
     pagecolor="#ffffff"
     bordercolor="#666666"
     borderopacity="1.0"
     inkscape:pageshadow="2"
     inkscape:pageopacity="0.0"
     inkscape:pagecheckerboard="0"
     inkscape:document-units="mm"
     showgrid="false"
     inkscape:zoom="1.6364594"
     inkscape:cx="263.06794"
     inkscape:cy="242.29138"
     inkscape:window-width="1920"
     inkscape:window-height="1017"
     inkscape:window-x="-8"
     inkscape:window-y="-8"
     inkscape:window-maximized="1"
     inkscape:current-layer="layer1" />
  <defs
     id="defs11648" />
  <g
     inkscape:label="レイヤー 1"
     inkscape:groupmode="layer"
     id="layer1">
    <g
       aria-label="0010"
       id="text1796"
       style="font-size:42.3333px;font-family:Consolas;-inkscape-font-specification:Consolas;fill:#333333;stroke-width:0.264583">
      <path
         d="m 38.270795,38.313615 q 0,3.100584 -0.620117,5.663733 -0.620116,2.542478 -1.88102,4.382158 -1.260904,1.819009 -3.141925,2.831866 -1.86035,0.992187 -4.382158,0.992187 -2.170409,0 -3.948077,-0.806152 -1.777668,-0.826822 -3.038572,-2.521808 -1.260904,-1.694985 -1.943032,-4.320146 -0.682129,-2.625161 -0.682129,-6.221838 0,-3.100583 0.620117,-5.663733 0.640787,-2.563149 1.881021,-4.382158 1.260904,-1.839679 3.141925,-2.831866 1.88102,-1.012857 4.382158,-1.012857 2.170408,0 3.948076,0.826822 1.777668,0.806152 3.038572,2.521808 1.260904,1.694986 1.943033,4.320146 0.682128,2.625161 0.682128,6.221838 z m -3.638018,0.124023 q 0,-0.702798 -0.06201,-1.384927 -0.04134,-0.702799 -0.103353,-1.364257 l -11.430818,8.495599 q 0.310059,1.074869 0.785481,1.984374 0.475423,0.909504 1.136881,1.570962 0.682128,0.640788 1.529621,1.012858 0.868164,0.351399 1.963703,0.351399 1.405598,0 2.542479,-0.682128 1.157551,-0.682129 1.963703,-2.025715 0.806151,-1.343586 1.240233,-3.32796 0.434082,-2.005044 0.434082,-4.630205 z M 22.271784,38.189592 q 0,0.640787 0,1.281574 0.02067,0.640788 0.08268,1.240234 L 33.785284,32.257142 Q 33.475226,31.202943 32.999803,30.33478 32.52438,29.466617 31.862922,28.8465 31.201464,28.205713 30.353971,27.854313 29.506479,27.502914 28.45228,27.502914 q -1.405598,0 -2.563149,0.682128 -1.136881,0.682128 -1.943032,2.046385 -0.806152,1.343586 -1.240234,3.34863 -0.434081,1.984374 -0.434081,4.609535 z"
         id="path956" />
      <path
         d="m 61.545842,38.313615 q 0,3.100584 -0.620116,5.663733 -0.620117,2.542478 -1.881021,4.382158 -1.260904,1.819009 -3.141925,2.831866 -1.86035,0.992187 -4.382158,0.992187 -2.170409,0 -3.948077,-0.806152 -1.777667,-0.826822 -3.038571,-2.521808 -1.260904,-1.694985 -1.943033,-4.320146 -0.682128,-2.625161 -0.682128,-6.221838 0,-3.100583 0.620116,-5.663733 0.640788,-2.563149 1.881021,-4.382158 1.260904,-1.839679 3.141925,-2.831866 1.881021,-1.012857 4.382158,-1.012857 2.170409,0 3.948077,0.826822 1.777667,0.806152 3.038571,2.521808 1.260904,1.694986 1.943033,4.320146 0.682128,2.625161 0.682128,6.221838 z m -3.638018,0.124023 q 0,-0.702798 -0.06201,-1.384927 -0.04134,-0.702799 -0.103352,-1.364257 l -11.430819,8.495599 q 0.310059,1.074869 0.785482,1.984374 0.475422,0.909504 1.13688,1.570962 0.682129,0.640788 1.529622,1.012858 0.868163,0.351399 1.963703,0.351399 1.405597,0 2.542478,-0.682128 1.157551,-0.682129 1.963703,-2.025715 0.806152,-1.343586 1.240233,-3.32796 0.434082,-2.005044 0.434082,-4.630205 z M 45.546831,38.189592 q 0,0.640787 0,1.281574 0.02067,0.640788 0.08268,1.240234 L 57.060331,32.257142 Q 56.750273,31.202943 56.27485,30.33478 55.799427,29.466617 55.137969,28.8465 q -0.661457,-0.640787 -1.50895,-0.992187 -0.847493,-0.351399 -1.901691,-0.351399 -1.405598,0 -2.56315,0.682128 -1.13688,0.682128 -1.943032,2.046385 -0.806152,1.343586 -1.240233,3.34863 -0.434082,1.984374 -0.434082,4.609535 z"
         id="path958" />
      <path
         d="M 83.973397,51.811489 H 67.002869 v -3.34863 h 6.945307 V 28.743147 l -6.469884,3.513995 -1.322916,-3.059243 8.598952,-4.526852 h 3.183266 v 23.791812 h 6.035803 z"
         id="path960" />
      <path
         d="m 108.09594,38.313615 q 0,3.100584 -0.62012,5.663733 -0.62012,2.542478 -1.88102,4.382158 -1.2609,1.819009 -3.14193,2.831866 -1.86035,0.992187 -4.382153,0.992187 -2.170409,0 -3.948077,-0.806152 -1.777668,-0.826822 -3.038572,-2.521808 -1.260904,-1.694985 -1.943032,-4.320146 -0.682129,-2.625161 -0.682129,-6.221838 0,-3.100583 0.620117,-5.663733 0.640787,-2.563149 1.881021,-4.382158 1.260904,-1.839679 3.141925,-2.831866 1.88102,-1.012857 4.382158,-1.012857 2.170412,0 3.948072,0.826822 1.77767,0.806152 3.03858,2.521808 1.2609,1.694986 1.94303,4.320146 0.68213,2.625161 0.68213,6.221838 z m -3.63802,0.124023 q 0,-0.702798 -0.062,-1.384927 -0.0413,-0.702799 -0.10336,-1.364257 l -11.430814,8.495599 q 0.310058,1.074869 0.785481,1.984374 0.475423,0.909504 1.136881,1.570962 0.682128,0.640788 1.529621,1.012858 0.868164,0.351399 1.963703,0.351399 1.405598,0 2.542478,-0.682128 1.15755,-0.682129 1.9637,-2.025715 0.80616,-1.343586 1.24024,-3.32796 0.43408,-2.005044 0.43408,-4.630205 z M 92.096925,38.189592 q 0,0.640787 0,1.281574 0.02067,0.640788 0.08268,1.240234 l 11.430822,-8.454258 q -0.31006,-1.054199 -0.78549,-1.922362 -0.47542,-0.868163 -1.13688,-1.48828 -0.66145,-0.640787 -1.50895,-0.992187 -0.847489,-0.351399 -1.901688,-0.351399 -1.405598,0 -2.563149,0.682128 -1.136881,0.682128 -1.943032,2.046385 -0.806152,1.343586 -1.240234,3.34863 -0.434082,1.984374 -0.434082,4.609535 z"
         id="path962" />
    </g>
    <g
       aria-label="2"
       id="text1796-7"
       style="font-size:42.3333px;font-family:Consolas;-inkscape-font-specification:Consolas;fill:#333333;stroke-width:0.264583">
      <path
         d="M 107.51044,98.610695 H 89.713087 v -3.224607 l 6.986648,-6.945307 q 1.715656,-1.694986 2.790525,-2.93522 1.07487,-1.240233 1.67432,-2.25309 0.59944,-1.033528 0.80615,-1.943033 0.2067,-0.909504 0.2067,-1.963703 0,-0.992186 -0.26871,-1.88102 -0.26872,-0.909505 -0.82683,-1.591633 -0.5581,-0.682129 -1.446936,-1.074869 -0.888834,-0.392741 -2.129067,-0.392741 -1.715656,0 -3.121254,0.764811 -1.405598,0.76481 -2.58382,1.984373 l -1.984374,-2.377114 q 1.529622,-1.612303 3.513995,-2.583819 2.005044,-0.971517 4.650876,-0.971517 1.798338,0 3.26595,0.537435 1.48828,0.537434 2.56315,1.550292 1.07487,1.012857 1.65364,2.480467 0.59945,1.467609 0.59945,3.307289 0,1.550292 -0.41341,2.873207 -0.41341,1.322916 -1.26091,2.645832 -0.82682,1.302245 -2.10839,2.707843 -1.26091,1.405597 -2.997235,3.079913 l -4.898922,4.774898 h 13.125807 z"
         id="path997" />
    </g>
    <g
       id="g6"
       transform="matrix(-0.06288254,0,0,-0.0602871,67.754797,100.13171)"
       style="fill:#333333">
      <path
         class="st0"
         d="M 448.115,240.956 C 408.809,201.567 353.949,177.043 293.88,177.071 H 242.854 V 86.142 c 0,-8.058 -4.506,-15.439 -11.674,-19.125 -7.172,-3.677 -15.8,-3.047 -22.352,1.64 L 8.983,211.746 C 3.343,215.784 0,222.295 0,229.232 c 0,6.937 3.343,13.448 8.983,17.486 l 199.844,143.088 c 6.552,4.687 15.18,5.316 22.352,1.64 7.169,-3.686 11.674,-11.068 11.674,-19.125 v -90.929 h 51.026 c 31.59,0.019 59.708,12.651 80.467,33.331 20.676,20.755 33.305,48.882 33.332,80.473 0,28.803 23.353,52.16 52.16,52.16 28.807,0 52.162,-23.356 52.162,-52.16 0.028,-60.069 -24.492,-114.925 -63.885,-154.24 z"
         style="fill:#333333"
         id="path4" />
    </g>
    <g
       id="use9107"
       style="font-size:42.3333px;line-height:1.25;font-family:Consolas;-inkscape-font-specification:Consolas;fill:#333333;stroke-width:0.264583" />
    <g
       id="use9109"
       style="font-size:42.3333px;font-family:Consolas;-inkscape-font-specification:Consolas;fill:#333333;stroke-width:0.264583" />
    <use
       x="0"
       y="0"
       xlink:href="#g6"
       id="use9111" />
  </g>
</svg>
