<?xml version="1.0" encoding="UTF-8" standalone="no"?>
<!-- Created with Inkscape (http://www.inkscape.org/) -->

<svg
   width="128mm"
   height="128mm"
   viewBox="0 0 128 128"
   version="1.1"
   id="svg11651"
   inkscape:version="1.1.1 (3bf5ae0d25, 2021-09-20)"
   sodipodi:docname="rotate.svg.2022_02_12_04_02_16.0.svg"
   xmlns:inkscape="http://www.inkscape.org/namespaces/inkscape"
   xmlns:sodipodi="http://sodipodi.sourceforge.net/DTD/sodipodi-0.dtd"
   xmlns:xlink="http://www.w3.org/1999/xlink"
   xmlns="http://www.w3.org/2000/svg"
   xmlns:svg="http://www.w3.org/2000/svg">
  <sodipodi:namedview
     id="namedview11653"
     pagecolor="#ffffff"
     bordercolor="#666666"
     borderopacity="1.0"
     inkscape:pageshadow="2"
     inkscape:pageopacity="0.0"
     inkscape:pagecheckerboard="0"
     inkscape:document-units="mm"
     showgrid="false"
     inkscape:zoom="1.6364594"
     inkscape:cx="263.06794"
     inkscape:cy="242.29138"
     inkscape:window-width="1920"
     inkscape:window-height="1017"
     inkscape:window-x="-8"
     inkscape:window-y="-8"
     inkscape:window-maximized="1"
     inkscape:current-layer="layer1" />
  <defs
     id="defs11648" />
  <g
     inkscape:label="レイヤー 1"
     inkscape:groupmode="layer"
     id="layer1">
    <text
       xml:space="preserve"
       style="font-style:normal;font-variant:normal;font-weight:normal;font-stretch:normal;font-size:42.3333px;line-height:1.25;font-family:Consolas;-inkscape-font-specification:Consolas;fill:#333333;fill-opacity:1;stroke:none;stroke-width:0.264583"
       x="16.814756"
       y="51.811489"
       id="text1796"><tspan
         sodipodi:role="line"
         id="tspan1794"
         style="font-style:normal;font-variant:normal;font-weight:normal;font-stretch:normal;font-size:42.3333px;font-family:Consolas;-inkscape-font-specification:Consolas;fill:#333333;stroke-width:0.264583"
         x="16.814756"
         y="51.811489">0010</tspan></text>
    <text
       xml:space="preserve"
       style="font-style:normal;font-variant:normal;font-weight:normal;font-stretch:normal;font-size:42.3333px;line-height:1.25;font-family:Consolas;-inkscape-font-specification:Consolas;fill:#333333;fill-opacity:1;stroke:none;stroke-width:0.264583"
       x="86.674515"
       y="98.610695"
       id="text1796-7"><tspan
         sodipodi:role="line"
         id="tspan1794-8"
         style="font-style:normal;font-variant:normal;font-weight:normal;font-stretch:normal;font-size:42.3333px;font-family:Consolas;-inkscape-font-specification:Consolas;fill:#333333;stroke-width:0.264583"
         x="86.674515"
         y="98.610695">2</tspan></text>
    <g
       id="g6"
       transform="matrix(-0.06288254,0,0,-0.0602871,67.754797,100.13171)"
       style="fill:#333333">
      <path
         class="st0"
         d="M 448.115,240.956 C 408.809,201.567 353.949,177.043 293.88,177.071 H 242.854 V 86.142 c 0,-8.058 -4.506,-15.439 -11.674,-19.125 -7.172,-3.677 -15.8,-3.047 -22.352,1.64 L 8.983,211.746 C 3.343,215.784 0,222.295 0,229.232 c 0,6.937 3.343,13.448 8.983,17.486 l 199.844,143.088 c 6.552,4.687 15.18,5.316 22.352,1.64 7.169,-3.686 11.674,-11.068 11.674,-19.125 v -90.929 h 51.026 c 31.59,0.019 59.708,12.651 80.467,33.331 20.676,20.755 33.305,48.882 33.332,80.473 0,28.803 23.353,52.16 52.16,52.16 28.807,0 52.162,-23.356 52.162,-52.16 0.028,-60.069 -24.492,-114.925 -63.885,-154.24 z"
         style="fill:#333333"
         id="path4" />
    </g>
    <use
       x="0"
       y="0"
       xlink:href="#text1796"
       id="use9107" />
    <use
       x="0"
       y="0"
       xlink:href="#text1796-7"
       id="use9109" />
    <use
       x="0"
       y="0"
       xlink:href="#g6"
       id="use9111" />
  </g>
</svg>
