<?xml version="1.0" encoding="UTF-8" standalone="no"?>
<svg
   width="120"
   height="120"
   viewBox="0 0 120 120"
   fill="none"
   stroke="#333"
   stroke-width="2"
   version="1.1"
   id="svg2"
   sodipodi:docname="schedule_speed.svg"
   inkscape:version="1.3.2 (091e20e, 2023-11-25, custom)"
   xmlns:inkscape="http://www.inkscape.org/namespaces/inkscape"
   xmlns:sodipodi="http://sodipodi.sourceforge.net/DTD/sodipodi-0.dtd"
   xmlns="http://www.w3.org/2000/svg"
   xmlns:svg="http://www.w3.org/2000/svg">
  <defs
     id="defs2" />
  <sodipodi:namedview
     id="namedview2"
     pagecolor="#ffffff"
     bordercolor="#000000"
     borderopacity="0.25"
     inkscape:showpageshadow="2"
     inkscape:pageopacity="0.0"
     inkscape:pagecheckerboard="0"
     inkscape:deskcolor="#d1d1d1"
     inkscape:zoom="7.5365795"
     inkscape:cx="195.44675"
     inkscape:cy="61.898106"
     inkscape:window-width="3840"
     inkscape:window-height="2054"
     inkscape:window-x="-11"
     inkscape:window-y="-11"
     inkscape:window-maximized="1"
     inkscape:current-layer="svg2" />
  <!-- ピンA（左下） -->
  <!-- ピンB（右上） -->
  <path
     d="M 85.65129,44.115717 C 78.667709,34.212667 75.175919,27.610635 75.175919,21.008602 a 17.458954,16.505084 0 1 1 34.917911,0 c 0,6.602033 -3.49179,13.204065 -10.475375,23.107115 l -6.983584,9.903049 z"
     fill="#333333"
     stroke="none"
     id="path2"
     style="stroke-width:3.39506" />
  <ellipse
     cx="92.604843"
     cy="20.466604"
     fill="#ffffff"
     id="circle2"
     rx="9.2605505"
     ry="8.9094572"
     style="stroke-width:4.54166" />
  <path
     d="M 18.544954,104.32057 C 11.561373,94.417518 8.0695834,87.815486 8.0695834,81.213453 a 17.458956,16.505085 0 1 1 34.9179096,0 c 0,6.602033 -3.49179,13.204065 -10.47537,23.107117 l -6.983588,9.90305 z"
     fill="#333333"
     stroke="none"
     id="path2-8"
     style="stroke-width:3.39506" />
  <ellipse
     cx="25.498508"
     cy="80.671455"
     fill="#ffffff"
     id="circle2-7"
     rx="9.2605505"
     ry="8.9094572"
     style="stroke-width:4.54166" />
  <!-- 点Aから点Bへの斜め線（やや短縮） -->
  <!-- 矢印のヘッド（やや内側） -->
  <polygon
     points="88,20 90,24 94,18 "
     fill="#333333"
     id="polygon2"
     transform="matrix(2.6334968,-0.63219569,0.5967893,2.0773684,-185.44844,66.46789)" />
  <rect
     style="fill:#343434;fill-opacity:1;stroke-width:1.53662"
     id="rect1"
     width="32.724903"
     height="4.9021111"
     x="-16.669315"
     y="81.123375"
     transform="matrix(0.71586942,-0.69823418,0.69529226,0.71872712,0,0)" />
  <g
     id="g2"
     transform="matrix(0.12385539,0,0,0.12515871,55.134017,65.702891)">
	<path
   class="st0"
   d="M 491.896,264.561 C 472.448,218.617 440.013,179.569 399.162,151.972 358.311,124.367 308.96,108.214 256,108.214 c -35.29,0 -69,7.169 -99.633,20.129 C 110.4,147.786 71.351,180.23 43.75,221.076 16.154,261.899 0,311.287 0,364.214 c 0,4.427 0.109,8.814 0.331,13.185 H 80.533 V 351.028 H 37.775 c 1.512,-25.395 7.338,-49.589 16.766,-71.895 9.315,-22.04 22.174,-42.25 37.819,-59.903 l 30.234,30.242 18.656,-18.661 -30.214,-30.218 c 7.186,-6.363 14.766,-12.307 22.746,-17.677 31.508,-21.274 68.754,-34.501 109.033,-36.896 v 42.734 h 26.37 v -42.766 c 25.423,1.524 49.617,7.338 71.92,16.774 22.044,9.315 42.258,22.17 59.903,37.814 l -30.234,30.234 18.632,18.661 30.238,-30.218 c 6.371,7.186 12.279,14.766 17.69,22.75 21.266,31.509 34.5,68.758 36.891,109.024 h -42.738 v 26.371 h 80.162 c 0.242,-4.371 0.35,-8.758 0.35,-13.185 0.026,-35.282 -7.161,-68.991 -20.103,-99.652 z"
   style="fill:#352f2f"
   id="path1" />

	<path
   class="st0"
   d="m 329.375,199.471 c -1.415,-0.621 -3.169,0.073 -4.133,1.653 l -75.383,124.072 c -18.915,2.96 -33.4,19.291 -33.4,39.033 0,21.847 17.706,39.556 39.553,39.556 21.842,0 39.553,-17.709 39.553,-39.556 0,-7.395 -2.064,-14.282 -5.593,-20.202 L 330.94,203.631 c 0.52,-1.772 -0.149,-3.538 -1.565,-4.16 z m -73.363,184.533 c -10.924,0 -19.778,-8.847 -19.778,-19.774 0,-10.927 8.854,-19.782 19.778,-19.782 10.92,0 19.774,8.855 19.774,19.782 0,10.927 -8.854,19.774 -19.774,19.774 z"
   style="fill:#352f2f"
   id="path2-80" />

</g>
</svg>
