<?xml version="1.0" encoding="UTF-8" standalone="no"?>
<!-- Created with Inkscape (http://www.inkscape.org/) -->

<svg
   width="128mm"
   height="128mm"
   viewBox="0 0 128 128"
   version="1.1"
   id="svg5981"
   inkscape:version="1.1 (c4e8f9e, 2021-05-24)"
   sodipodi:docname="text.svg"
   xmlns:inkscape="http://www.inkscape.org/namespaces/inkscape"
   xmlns:sodipodi="http://sodipodi.sourceforge.net/DTD/sodipodi-0.dtd"
   xmlns="http://www.w3.org/2000/svg"
   xmlns:svg="http://www.w3.org/2000/svg">
  <sodipodi:namedview
     id="namedview5983"
     pagecolor="#ffffff"
     bordercolor="#666666"
     borderopacity="1.0"
     inkscape:pageshadow="2"
     inkscape:pageopacity="0.0"
     inkscape:pagecheckerboard="0"
     inkscape:document-units="mm"
     showgrid="false"
     inkscape:zoom="0.63606902"
     inkscape:cx="396.9695"
     inkscape:cy="501.5179"
     inkscape:window-width="1680"
     inkscape:window-height="936"
     inkscape:window-x="0"
     inkscape:window-y="25"
     inkscape:window-maximized="0"
     inkscape:current-layer="text8737" />
  <defs
     id="defs5978" />
  <g
     inkscape:label="レイヤー 1"
     inkscape:groupmode="layer"
     id="layer1">
    <g
       aria-label="Aa"
       id="text8737"
       style="font-size:70.5556px;line-height:1.25;font-family:'Hiragino Kaku Gothic Pro';-inkscape-font-specification:'Hiragino Kaku Gothic Pro';fill:#4b4b4b;stroke-width:0.264583">
      <path
         d="M 69.702279,89.009436 C 68.643945,87.17499 67.726722,85.128878 65.962832,80.895542 L 50.158377,41.948849 c -1.76389,-4.303892 -2.116668,-5.221115 -2.39889,-6.561671 h -7.126116 c -0.352778,1.622779 -0.917223,3.245558 -2.257779,6.561671 L 22.571136,80.895542 c -1.905001,4.727225 -2.39889,5.785559 -3.810002,8.113894 h 7.337783 c 0.493889,-2.469446 1.128889,-4.515558 2.187223,-7.196671 l 3.668892,-9.101673 h 24.623905 l 3.668892,9.101673 c 0.846667,2.187223 1.622778,4.656669 2.187223,7.196671 z M 54.885603,67.842755 H 33.648366 l 9.031117,-23.283349 c 0.141112,-0.282222 0.352778,-1.058334 0.776112,-2.187223 0.141111,-0.49389 0.423334,-1.270001 0.776112,-2.328335 1.340556,3.880558 1.340556,3.951113 1.552223,4.515558 z"
         id="path15042" />
      <path
         d="m 100.8173,89.009436 h 5.715 c -0.42333,-2.822224 -0.56444,-4.586114 -0.56444,-7.761116 V 61.422195 c 0,-7.620005 -4.79778,-11.571119 -14.111121,-11.571119 -5.291671,0 -9.525007,1.340557 -12.417786,4.02167 -1.763891,1.552223 -2.681113,3.033891 -3.951114,6.279449 l 5.503337,1.199445 c 0.705556,-2.116668 1.270001,-3.104447 2.187223,-4.092225 1.975557,-2.046113 4.868337,-3.033891 8.748895,-3.033891 5.856115,0 8.890006,2.469446 8.890006,7.267227 v 4.092225 c -8.678339,0.211667 -12.065008,0.635 -16.227788,1.834446 -6.561672,1.834445 -10.089452,5.92667 -10.089452,11.571119 0,6.702782 4.727226,10.724451 12.488342,10.724451 2.398891,0 4.938892,-0.493889 7.337783,-1.411112 2.39889,-0.917223 3.739447,-1.834446 6.491115,-4.303892 z m 0,-14.675565 c 0,2.822224 -0.56444,4.303892 -2.187223,6.067782 -2.751669,3.033891 -7.196672,5.009447 -11.288897,5.009447 -4.586114,0 -7.478894,-2.469446 -7.478894,-6.350004 0,-3.386669 1.76389,-5.785559 5.362226,-7.267227 3.175002,-1.340556 7.196671,-1.834446 15.592788,-2.046112 z"
         id="path15044" />
    </g>
  </g>
</svg>
